<?xml version="1.0" standalone="no"?>
<!DOCTYPE svg PUBLIC "-//W3C//DTD SVG 20010904//EN"
 "http://www.w3.org/TR/2001/REC-SVG-20010904/DTD/svg10.dtd">
<svg version="1.0" xmlns="http://www.w3.org/2000/svg"
 width="192.000000pt" height="192.000000pt" viewBox="0 0 192.000000 192.000000"
 preserveAspectRatio="xMidYMid meet">

<g transform="translate(0.000000,192.000000) scale(0.100000,-0.100000)"
fill="#000000" stroke="none">
<path d="M1012 1249 c3 -66 9 -124 15 -130 5 -5 23 -6 41 -3 31 6 31 7 25 53
l-6 46 45 -43 c42 -40 47 -42 71 -31 15 7 27 15 27 19 0 3 -21 22 -46 41 l-45
34 36 33 c20 19 35 35 33 36 -2 2 -18 8 -37 15 -37 12 -56 4 -66 -30 -13 -39
-26 -18 -19 31 l7 50 -43 0 -43 0 5 -121z"/>
<path d="M1210 1365 c0 -4 7 -19 15 -36 l16 -30 24 30 c14 16 25 32 25 35 0 3
-18 6 -40 6 -22 0 -40 -2 -40 -5z"/>
<path d="M1365 1340 c-70 -15 -95 -44 -95 -108 0 -77 79 -127 162 -103 34 11
78 51 78 72 0 17 -53 9 -87 -12 -29 -18 -38 -20 -63 -9 -17 7 -30 16 -30 20 0
4 41 15 90 25 50 10 90 19 90 22 0 11 -30 61 -43 72 -23 19 -69 28 -102 21z
m64 -59 c16 -10 4 -15 -64 -27 l-40 -7 19 22 c20 22 60 27 85 12z"/>
<path d="M493 1333 c-24 -5 -29 -26 -36 -150 l-3 -63 38 0 38 0 0 50 c0 55 14
67 24 20 5 -27 10 -30 41 -30 30 0 37 5 49 33 l14 32 1 -57 1 -58 41 0 42 0
-7 88 c-11 132 -11 132 -60 132 -41 0 -43 -2 -56 -40 -7 -22 -16 -40 -20 -40
-4 0 -15 20 -24 45 -18 46 -25 49 -83 38z"/>
<path d="M805 1325 c-27 -14 -61 -52 -53 -60 12 -12 68 -6 90 9 34 22 68 13
68 -17 0 -20 -4 -22 -45 -19 -78 7 -126 -48 -72 -81 32 -21 175 -43 188 -30
18 18 13 130 -6 159 -32 49 -112 67 -170 39z m109 -140 c3 -10 -1 -15 -13 -15
-26 0 -51 10 -51 21 0 15 57 10 64 -6z"/>
<path d="M608 1079 c-34 -17 -38 -18 -38 -3 0 14 -9 16 -55 12 -30 -3 -56 -7
-58 -9 -3 -4 13 -333 16 -335 1 -1 26 -4 55 -8 l52 -7 0 97 c0 95 0 96 31 125
71 66 113 20 113 -123 l-1 -88 54 0 53 0 -6 68 c-10 107 19 182 65 167 26 -8
39 -50 47 -146 l7 -79 42 0 c53 0 55 5 55 126 0 146 -29 194 -123 202 -43 3
-58 0 -88 -21 l-36 -24 -36 33 c-44 40 -91 44 -149 13z"/>
<path d="M1153 1067 c-35 -5 -63 -14 -63 -19 0 -4 29 -67 65 -139 36 -71 63
-134 60 -140 -14 -22 -69 -41 -111 -37 l-44 3 0 -54 0 -54 78 5 c129 8 199 58
270 196 37 71 96 222 90 227 -2 1 -31 5 -64 8 l-61 6 -33 -89 c-17 -50 -33
-90 -35 -90 -2 0 -20 43 -41 95 -20 52 -40 94 -43 94 -3 -1 -34 -6 -68 -12z"/>
<path d="M526 704 c-35 -35 -10 -84 43 -84 23 0 38 18 19 24 -43 13 -47 16
-42 31 3 8 14 15 24 15 10 0 20 7 24 15 8 21 -47 20 -68 -1z"/>
<path d="M610 686 c0 -54 46 -86 78 -54 18 18 16 88 -3 88 -10 0 -15 -11 -15
-35 0 -19 -4 -35 -10 -35 -5 0 -10 16 -10 35 0 28 -4 35 -20 35 -16 0 -20 -7
-20 -34z"/>
<path d="M720 670 c0 -36 4 -50 14 -50 8 0 16 6 19 13 4 10 7 10 18 0 21 -21
27 -15 26 25 0 47 -12 62 -48 62 -28 0 -29 -2 -29 -50z m45 20 c3 -5 1 -10 -4
-10 -6 0 -11 5 -11 10 0 6 2 10 4 10 3 0 8 -4 11 -10z"/>
<path d="M820 670 c0 -36 4 -50 14 -50 8 0 16 6 19 13 4 10 7 10 18 0 21 -21
27 -15 26 25 0 47 -12 62 -48 62 -28 0 -29 -2 -29 -50z m45 20 c3 -5 1 -10 -4
-10 -6 0 -11 5 -11 10 0 6 2 10 4 10 3 0 8 -4 11 -10z"/>
<path d="M938 697 c13 -14 22 -36 22 -54 l0 -31 -202 -5 c-112 -3 -219 -5
-238 -4 -35 2 -35 2 -33 -37 2 -22 5 -41 8 -44 7 -8 260 -5 285 3 15 5 20 13
17 25 -4 16 5 19 80 25 46 4 102 5 124 2 36 -5 39 -3 39 19 0 18 -5 24 -23 24
-21 0 -23 4 -19 33 2 17 11 40 20 50 14 15 13 17 -4 17 -11 0 -25 -5 -31 -11
-8 -8 -13 -8 -17 0 -4 6 -17 11 -28 11 l-21 0 21 -23z"/>
</g>
</svg>
